<?xml version="1.0" standalone="no"?>
<!DOCTYPE svg PUBLIC "-//W3C//DTD SVG 20010904//EN"
 "http://www.w3.org/TR/2001/REC-SVG-20010904/DTD/svg10.dtd">
<svg version="1.0" xmlns="http://www.w3.org/2000/svg"
 width="2076.000000pt" height="644.000000pt" viewBox="0 0 2076.000000 644.000000"
 preserveAspectRatio="xMidYMid meet">

<g transform="translate(0.000000,644.000000) scale(0.100000,-0.100000)"
fill="#000000" stroke="none">
<path d="M1482 5909 c-157 -30 -274 -153 -303 -315 -28 -160 68 -343 218 -420
52 -26 68 -29 153 -29 82 0 104 4 162 28 37 16 73 27 81 25 7 -1 105 -97 217
-211 l204 -208 -375 -375 c-205 -206 -378 -374 -384 -374 -6 0 -104 94 -218
209 l-209 208 21 42 c123 240 -1 507 -261 562 -176 38 -378 -68 -438 -229 -86
-229 36 -463 274 -527 79 -22 144 -12 245 36 l65 30 208 -208 c186 -186 225
-234 201 -245 -5 -1 -149 -145 -320 -319 -259 -262 -313 -321 -313 -344 0 -21
18 -46 75 -104 41 -43 75 -83 75 -91 0 -7 -47 -62 -105 -121 -58 -59 -105
-114 -105 -122 0 -17 55 -67 74 -67 22 0 80 49 161 136 l80 86 190 -191 c104
-106 193 -197 197 -204 4 -9 -65 -85 -202 -222 l-210 -210 -32 14 c-166 69
-265 67 -398 -5 -183 -100 -245 -354 -130 -533 45 -70 95 -112 180 -154 57
-27 75 -31 145 -31 289 2 479 300 354 558 -10 22 -19 47 -19 55 0 9 93 110
208 224 l207 207 163 -163 c89 -89 162 -167 162 -172 0 -6 -45 -55 -100 -109
-55 -54 -103 -110 -106 -123 -9 -36 43 -88 77 -78 13 4 71 54 129 111 l106
104 164 -165 165 -165 -212 -212 -211 -211 -64 27 c-74 33 -162 43 -238 27
-171 -35 -281 -149 -312 -321 -27 -158 68 -337 222 -417 51 -26 63 -28 165
-28 100 0 115 3 167 29 71 35 151 118 185 193 38 83 43 197 13 287 -12 36 -26
68 -31 71 -5 4 -9 12 -9 18 0 15 410 427 424 427 6 0 96 -85 201 -190 l189
-189 -107 -110 c-109 -111 -122 -136 -94 -172 38 -48 77 -31 199 89 l98 96 73
-71 c88 -86 106 -97 144 -82 15 6 170 152 344 325 l316 315 209 -211 c115
-117 208 -217 207 -224 -1 -6 -14 -40 -28 -75 -51 -122 -33 -272 46 -379 34
-46 143 -123 203 -142 61 -20 210 -9 271 20 72 34 150 117 188 197 29 63 32
76 32 173 0 95 -3 110 -28 162 -38 77 -103 140 -185 180 -61 29 -75 32 -167
33 -92 0 -105 -3 -162 -31 l-62 -30 -213 213 c-116 117 -209 216 -205 220 4 4
175 176 380 381 l372 372 213 -213 212 -213 -32 -64 c-31 -59 -33 -70 -33
-164 0 -94 2 -106 33 -168 40 -81 107 -145 201 -190 122 -59 261 -41 380 48
62 47 109 110 137 184 25 67 23 200 -4 270 -77 198 -328 295 -525 202 l-64
-30 -214 214 -213 214 327 328 c272 274 327 334 327 357 0 21 -19 47 -82 111
l-81 84 101 104 c56 57 104 116 108 130 9 39 -18 76 -58 76 -26 0 -48 -17
-140 -107 l-109 -107 -197 197 -197 197 214 214 214 214 51 -24 c91 -42 168
-56 232 -45 83 16 153 51 211 108 193 189 148 500 -90 618 -201 99 -442 18
-534 -180 -25 -53 -28 -71 -27 -160 0 -87 3 -108 27 -159 15 -32 27 -63 27
-69 0 -16 -409 -419 -420 -415 -6 2 -82 75 -170 163 l-160 159 94 96 c123 125
139 156 98 203 -34 39 -65 23 -173 -88 -57 -58 -108 -105 -113 -105 -6 0 -83
73 -172 161 l-162 162 213 213 214 212 81 -35 c78 -33 87 -35 169 -31 106 6
165 31 237 103 134 133 163 345 69 495 -32 50 -109 119 -159 141 -24 10 -74
24 -112 30 -59 10 -80 10 -146 -5 -251 -56 -372 -306 -263 -545 l26 -55 -208
-208 c-114 -114 -212 -208 -218 -208 -6 0 -96 85 -200 190 l-190 190 71 72
c97 100 144 158 144 179 0 17 -53 69 -70 69 -5 0 -59 -47 -120 -105 -62 -58
-117 -105 -124 -105 -6 0 -45 34 -86 75 -59 60 -81 75 -104 75 -26 0 -74 -44
-351 -320 -177 -176 -325 -320 -331 -320 -5 0 -103 94 -218 209 l-209 210 29
63 c26 57 29 73 29 168 0 92 -3 112 -26 160 -74 158 -256 245 -437 209z m171
-135 c61 -21 128 -93 152 -163 42 -127 -12 -248 -141 -314 -83 -43 -189 -25
-268 45 -119 104 -115 277 7 384 72 64 157 80 250 48z m2860 0 c51 -17 120
-84 142 -137 24 -58 28 -121 11 -179 -56 -192 -302 -244 -436 -92 -44 50 -60
93 -60 157 0 109 49 190 142 236 70 36 128 40 201 15z m592 -2524 c3 -11 -340
-360 -1039 -1060 -575 -574 -1052 -1048 -1061 -1053 -9 -5 -18 -7 -20 -5 -110
103 -2105 2105 -2105 2112 0 6 476 487 1057 1068 l1058 1058 1053 -1053 c578
-578 1054 -1059 1057 -1067z m-4274 1647 c87 -45 122 -101 127 -202 5 -84 -14
-137 -69 -200 -46 -52 -99 -75 -178 -75 -81 0 -136 25 -191 87 -78 89 -88 202
-27 305 26 43 44 59 95 85 88 46 156 46 243 0z m4554 9 c97 -45 144 -118 145
-223 0 -72 -23 -133 -71 -188 -46 -52 -99 -75 -179 -75 -80 0 -132 22 -182 78
-50 55 -69 94 -75 157 -20 189 187 333 362 251z m-4570 -2860 c97 -46 145
-121 145 -229 0 -185 -184 -310 -352 -238 -41 17 -104 77 -127 119 -24 45 -33
120 -21 176 16 77 56 127 131 165 79 40 151 42 224 7z m4586 -9 c87 -45 122
-101 127 -204 4 -64 1 -80 -23 -128 -30 -62 -92 -121 -144 -135 -56 -16 -142
-12 -186 9 -53 24 -119 100 -139 158 -34 101 -11 188 69 261 60 55 96 70 177
71 45 1 68 -5 119 -32z m-876 -837 c75 -33 125 -97 145 -186 23 -104 -25 -215
-119 -271 -69 -41 -123 -50 -193 -29 -108 31 -188 133 -188 238 0 81 17 126
68 180 88 94 179 115 287 68z m-2858 -1 c23 -11 62 -43 87 -69 113 -126 77
-312 -75 -395 -129 -70 -295 -7 -355 133 -20 48 -15 153 11 206 25 52 78 104
129 126 58 26 148 26 203 -1z"/>
<path d="M2535 4253 c-111 -25 -204 -76 -283 -155 -101 -100 -151 -216 -159
-371 -6 -95 -7 -97 -32 -103 -116 -23 -186 -61 -262 -141 -100 -105 -139 -200
-139 -338 0 -146 52 -268 157 -365 68 -64 105 -86 193 -116 52 -18 99 -19 950
-19 840 0 899 1 955 18 239 74 395 280 395 524 0 159 -51 284 -159 392 -98 99
-233 160 -356 161 -51 0 -56 4 -90 69 -92 169 -353 260 -528 183 l-47 -21 -45
59 c-87 113 -188 181 -320 215 -55 14 -184 19 -230 8z m186 -143 c121 -23 204
-87 296 -227 29 -46 55 -83 57 -83 9 0 87 30 132 51 70 32 155 36 225 10 80
-30 130 -78 178 -169 l41 -79 107 -5 c137 -7 204 -31 283 -105 221 -204 171
-553 -98 -685 l-67 -33 -905 0 -905 0 -66 32 c-79 39 -140 102 -177 181 -22
47 -26 72 -27 142 0 77 3 92 33 152 57 116 159 187 294 204 54 7 102 25 113
45 4 5 1 47 -5 92 -15 101 -4 166 46 267 81 161 259 245 445 210z"/>
<path d="M15540 4413 c-95 -16 -242 -80 -328 -145 -110 -82 -221 -252 -257
-393 -35 -139 -13 -338 53 -486 107 -237 370 -400 647 -402 120 -1 190 17 325
81 81 39 108 59 183 134 48 48 87 94 87 102 0 15 -171 146 -190 146 -6 0 -39
-30 -73 -67 -73 -77 -144 -116 -250 -133 -192 -33 -358 32 -457 180 -134 199
-113 442 50 594 199 183 469 179 658 -10 35 -35 66 -64 68 -64 3 0 35 20 73
45 76 50 121 91 121 110 0 7 -42 53 -93 102 -117 112 -235 176 -367 198 -80
14 -193 18 -250 8z"/>
<path d="M9743 4371 c-129 -35 -241 -120 -290 -219 -25 -51 -28 -67 -28 -162
0 -120 13 -156 88 -238 81 -88 173 -128 397 -173 173 -34 232 -69 246 -145 9
-47 -1 -78 -37 -118 -47 -54 -102 -70 -212 -63 -51 4 -114 13 -140 21 -52 16
-152 77 -205 126 -18 16 -37 30 -42 30 -13 0 -160 -172 -160 -187 0 -18 121
-104 221 -157 146 -78 344 -112 471 -82 200 47 327 168 359 342 29 158 -35
293 -186 390 -71 45 -130 65 -291 99 -152 32 -211 58 -241 104 -29 43 -29 69
0 111 47 70 139 101 249 82 91 -16 137 -37 220 -100 62 -48 67 -50 80 -33 7
10 41 55 76 100 35 45 61 85 57 90 -15 25 -141 109 -223 149 -92 45 -94 45
-215 49 -98 2 -136 -1 -194 -16z"/>
<path d="M6740 3689 l0 -691 338 4 c308 4 342 6 399 25 199 66 323 238 323
449 0 129 -54 241 -167 343 l-64 58 17 58 c52 181 -53 369 -237 426 -53 17
-95 19 -335 19 l-274 0 0 -691z m571 412 c38 -39 40 -97 5 -138 -24 -28 -24
-28 -170 -31 l-146 -3 0 100 0 101 141 0 141 0 29 -29z m118 -441 c125 -63
157 -230 62 -328 -66 -67 -85 -72 -300 -72 l-191 0 0 210 0 210 195 0 c175 0
200 -2 234 -20z"/>
<path d="M8043 3908 c5 -514 6 -533 65 -642 69 -132 253 -257 408 -279 91 -13
209 8 303 54 82 40 195 152 233 229 56 113 59 139 61 642 l2 463 -127 3 -127
3 -3 -463 -3 -463 -28 -58 c-46 -94 -146 -157 -247 -157 -99 0 -194 56 -248
148 l-27 47 -3 473 -3 472 -130 0 -131 0 5 -472z"/>
<path d="M11200 3690 l0 -690 445 0 445 0 0 130 0 130 -317 2 -318 3 -3 203
-2 202 285 0 285 0 0 125 0 125 -285 0 -285 0 0 105 0 105 325 0 325 0 0 125
0 125 -450 0 -450 0 0 -690z"/>
<path d="M13100 4327 c0 -30 -3 -88 -6 -130 l-7 -77 172 0 171 0 0 -560 0
-560 130 0 130 0 0 560 0 560 170 0 170 0 0 130 0 130 -465 0 -465 0 0 -53z"/>
<path d="M14375 4370 c-4 -6 -5 -317 -3 -690 l3 -680 128 0 127 0 0 690 0 690
-124 0 c-76 0 -127 -4 -131 -10z"/>
<path d="M16520 3690 l0 -690 129 0 129 0 -1 256 -2 256 110 103 c60 57 112
101 114 99 3 -3 118 -163 256 -357 l251 -352 157 -3 c89 -1 157 1 157 7 0 5
-140 204 -310 442 -171 239 -309 441 -308 450 2 9 50 60 108 114 200 188 370
353 370 359 0 3 -80 6 -179 6 l-179 0 -118 -112 c-66 -62 -186 -177 -267 -255
-82 -79 -153 -143 -158 -143 -6 0 -9 102 -9 253 l1 252 -125 3 -126 3 0 -691z"/>
<path d="M18062 3693 l3 -688 443 -3 442 -2 0 130 0 130 -315 0 -315 0 0 205
0 205 285 0 285 0 0 125 0 125 -285 0 -285 0 0 105 0 105 325 0 325 0 0 125 0
125 -455 0 -455 0 2 -687z"/>
<path d="M19180 4250 l0 -130 170 0 170 0 0 -560 0 -560 130 0 130 0 0 560 0
560 170 0 170 0 0 130 0 130 -470 0 -470 0 0 -130z"/>
<path d="M12300 3445 l0 -115 302 2 303 3 3 113 4 112 -306 0 -306 0 0 -115z"/>
<path d="M10073 2060 c-51 -21 -73 -111 -37 -151 10 -11 48 -29 86 -40 81 -25
108 -54 90 -95 -27 -58 -119 -57 -154 2 -23 39 -48 45 -48 12 1 -50 56 -88
127 -88 44 0 58 5 83 28 28 26 35 48 32 100 -2 27 -47 56 -119 77 -79 23 -101
74 -50 110 36 25 85 19 117 -15 35 -37 40 -37 40 0 0 24 -7 33 -40 50 -41 21
-90 25 -127 10z"/>
<path d="M10883 2058 c-16 -20 -153 -333 -153 -348 0 -6 7 -10 15 -10 8 0 24
20 36 45 l21 45 99 0 99 0 22 -45 c14 -29 29 -45 40 -45 21 0 29 -23 -72 210
-69 160 -83 179 -107 148z m60 -136 c20 -49 37 -92 37 -95 0 -4 -36 -7 -81 -7
-61 0 -80 3 -76 13 3 6 20 49 38 95 17 45 35 82 38 82 4 0 23 -40 44 -88z"/>
<path d="M11204 2051 c-41 -25 -61 -80 -44 -121 9 -22 25 -34 66 -50 30 -11
60 -20 67 -20 30 0 57 -31 57 -65 0 -81 -130 -89 -160 -9 -12 31 -40 32 -40 1
0 -35 26 -64 73 -82 87 -33 167 15 167 101 0 54 -23 74 -115 99 -51 13 -69 23
-78 42 -15 33 18 77 61 81 36 4 92 -22 92 -43 0 -8 7 -15 16 -15 11 0 14 8 12
27 -7 59 -114 92 -174 54z"/>
<path d="M11563 2056 c-57 -26 -67 -70 -29 -127 l25 -36 -25 -24 c-59 -55 -65
-111 -17 -149 34 -27 102 -27 136 0 14 11 29 20 35 20 5 0 17 -9 27 -20 17
-18 45 -28 45 -15 0 3 -9 18 -21 34 l-20 28 25 38 c14 21 26 44 26 51 0 26
-19 14 -41 -26 l-23 -40 -43 42 c-24 23 -43 45 -43 48 0 4 12 13 26 20 53 29
67 106 25 144 -25 23 -71 28 -108 12z m89 -51 c14 -32 0 -65 -37 -85 -25 -14
-28 -13 -46 9 -21 26 -25 71 -7 89 7 7 27 12 45 12 26 0 36 -6 45 -25z m-24
-187 c18 -23 32 -45 32 -49 0 -15 -45 -39 -72 -39 -30 0 -68 31 -68 54 0 19
48 76 64 76 6 0 26 -19 44 -42z"/>
<path d="M12313 2056 c-31 -14 -73 -68 -73 -93 0 -23 30 -14 40 11 22 58 103
76 139 30 12 -15 21 -36 21 -48 0 -25 -42 -68 -112 -115 -59 -40 -88 -76 -88
-112 l0 -29 120 0 c108 0 120 2 120 18 0 15 -11 17 -101 15 -126 -2 -127 8
-14 89 122 87 143 138 83 203 -39 42 -87 53 -135 31z"/>
<path d="M13024 2051 c-37 -22 -64 -58 -64 -83 0 -28 23 -20 45 15 38 59 116
61 144 3 20 -42 4 -66 -84 -132 -75 -55 -115 -102 -115 -136 0 -16 13 -18 126
-18 111 0 125 2 122 16 -3 14 -17 17 -101 15 -90 -2 -98 -1 -95 16 2 10 26 34
53 53 27 19 72 56 99 82 45 44 48 51 43 84 -7 41 -29 69 -69 90 -37 19 -67 18
-104 -5z"/>
<path d="M13385 2046 c-49 -29 -84 -88 -91 -153 -8 -70 34 -149 96 -181 94
-48 217 0 245 96 10 36 -20 27 -44 -13 -63 -108 -237 -68 -256 59 -13 88 53
176 132 176 49 0 82 -17 123 -61 44 -48 56 -40 31 17 -35 78 -156 108 -236 60z"/>
<path d="M14270 1886 l0 -186 105 0 c85 0 105 3 105 15 0 11 -18 15 -82 17
l-83 3 -5 165 c-4 147 -7 165 -22 168 -17 3 -18 -11 -18 -182z"/>
<path d="M14693 2058 c-13 -17 -153 -335 -153 -348 0 -27 31 -5 49 35 l20 45
101 0 101 0 20 -45 c19 -43 49 -62 49 -31 0 8 -16 50 -36 93 -19 43 -51 116
-71 163 -40 98 -58 117 -80 88z m56 -125 c51 -124 55 -113 -38 -113 -44 0 -81
3 -81 6 0 13 75 184 81 184 4 0 21 -35 38 -77z"/>
<path d="M15744 2051 c-51 -23 -89 -71 -104 -133 -21 -82 17 -161 97 -202 69
-34 189 -10 225 46 46 71 46 156 0 227 -48 74 -136 99 -218 62z m163 -52 c126
-117 6 -321 -151 -255 -52 22 -81 70 -81 138 0 66 21 102 76 131 47 25 121 18
156 -14z"/>
<path d="M10470 2048 c0 -7 -34 -87 -74 -178 -41 -91 -72 -167 -71 -168 12
-13 45 15 58 48 l15 40 101 0 101 0 22 -45 c14 -29 28 -45 41 -45 10 0 16 3
14 8 -2 4 -37 85 -78 179 -70 164 -75 173 -101 173 -16 0 -28 -6 -28 -12z m73
-126 c20 -49 37 -92 37 -95 0 -4 -36 -7 -81 -7 -73 0 -80 2 -74 18 4 9 20 52
37 95 16 42 33 77 37 77 3 0 23 -40 44 -88z"/>
<path d="M11882 1883 l3 -178 102 0 c94 0 103 2 127 24 36 34 37 102 1 135
l-25 23 22 41 c46 84 -8 132 -150 132 l-82 0 2 -177z m186 131 c31 -22 29 -67
-4 -93 -20 -16 -41 -21 -85 -21 l-59 0 0 65 0 65 63 0 c40 0 70 -5 85 -16z m1
-154 c10 -5 24 -23 31 -40 12 -29 11 -33 -13 -58 -23 -22 -37 -27 -97 -30
l-70 -4 0 71 0 71 66 0 c36 0 73 -4 83 -10z"/>
<path d="M12600 1879 l0 -181 106 4 c102 3 107 4 130 31 33 38 32 92 -1 127
l-25 26 21 42 c19 37 20 46 8 73 -17 43 -61 59 -159 59 l-80 0 0 -181z m190
131 c27 -27 25 -56 -5 -85 -20 -21 -34 -25 -85 -25 l-60 0 0 65 0 65 65 0 c52
0 69 -4 85 -20z m7 -162 c59 -55 7 -118 -99 -118 l-58 0 0 70 0 70 67 0 c55 0
71 -4 90 -22z"/>
<path d="M13910 1880 c0 -172 1 -180 20 -180 17 0 19 8 22 73 l3 72 78 5 c71
4 81 8 103 33 31 36 35 79 11 125 -19 39 -58 52 -152 52 l-85 0 0 -180z m192
122 c29 -29 28 -79 -1 -104 -17 -13 -40 -18 -87 -18 l-64 0 0 68 c0 38 3 72 8
76 4 4 33 6 65 4 42 -3 64 -10 79 -26z"/>
<path d="M14940 2045 c0 -12 13 -15 60 -15 l60 0 0 -165 c0 -158 1 -165 20
-165 18 0 20 8 22 163 l3 162 57 3 c38 2 58 8 62 17 5 13 -17 15 -139 15 -122
0 -145 -2 -145 -15z"/>
<path d="M15320 1885 c0 -168 1 -175 20 -175 18 0 20 7 20 75 l0 75 84 0 c64
0 85 3 89 15 8 20 -6 27 -51 25 -20 -1 -56 -2 -80 -1 l-43 1 3 63 3 62 93 3
c73 2 92 6 92 17 0 12 -21 15 -115 15 l-115 0 0 -175z"/>
<path d="M16110 1975 c0 -47 3 -85 8 -85 22 1 31 21 34 75 l3 60 48 3 c33 2
47 7 47 18 0 11 -16 14 -70 14 l-70 0 0 -85z"/>
<path d="M16490 1950 c0 -91 3 -110 15 -110 8 0 15 -5 15 -10 0 -6 -7 -13 -15
-16 -11 -5 -15 -21 -15 -60 0 -47 3 -54 20 -54 18 0 20 8 22 147 l3 146 61
-144 c48 -112 66 -145 82 -147 14 -2 23 4 28 20 4 13 26 65 50 117 25 51 47
104 50 117 16 62 24 24 24 -110 0 -139 1 -146 20 -146 19 0 20 7 20 180 l0
180 -27 0 c-26 0 -32 -9 -97 -155 l-69 -155 -39 92 c-22 51 -51 121 -66 156
-23 55 -28 62 -54 62 l-28 0 0 -110z"/>
<path d="M16290 2044 c0 -12 63 -104 72 -104 20 0 6 54 -21 81 -27 27 -51 38
-51 23z"/>
<path d="M16110 1735 c0 -28 4 -35 20 -35 15 0 20 7 20 29 0 17 -6 31 -16 35
-24 9 -24 9 -24 -29z"/>
<path d="M16350 1710 c0 -5 5 -10 10 -10 6 0 10 5 10 10 0 6 -4 10 -10 10 -5
0 -10 -4 -10 -10z"/>
</g>
</svg>
